<?xml version="1.0" encoding="utf-8"?>
<!-- Generator: Adobe Illustrator 22.0.1, SVG Export Plug-In . SVG Version: 6.00 Build 0)  -->
<svg version="1.1" id="レイヤー_1" xmlns="http://www.w3.org/2000/svg" xmlns:xlink="http://www.w3.org/1999/xlink" x="0px"
	 y="0px" viewBox="0 0 301 301" style="enable-background:new 0 0 301 301;" xml:space="preserve">
<style type="text/css">
	.st0{fill:none;}
	.st1{fill:none;stroke:#0081FF;stroke-width:0.75;stroke-linecap:round;stroke-linejoin:round;stroke-miterlimit:10;}
	.st2{fill:#FFFFFF;stroke:#0081FF;stroke-width:0.75;stroke-linecap:round;stroke-linejoin:round;stroke-miterlimit:10;}
</style>
<g id="guide">
</g>
<rect y="1" class="st0" width="300" height="300"/>
<g>
	<g>
		<line class="st1" x1="147.2" y1="198.5" x2="180.4" y2="197.5"/>
		<line class="st1" x1="143.8" y1="199.7" x2="176.9" y2="198.7"/>
		<line class="st1" x1="140.1" y1="201.1" x2="173.2" y2="200.1"/>
		<line class="st1" x1="137.4" y1="202.1" x2="170.5" y2="201.1"/>
	</g>
	<g>
		<line class="st1" x1="172.8" y1="214.2" x2="205.9" y2="213.2"/>
		<line class="st1" x1="166.5" y1="213.2" x2="199.6" y2="212.2"/>
		<line class="st1" x1="161.5" y1="212.1" x2="194.6" y2="211.1"/>
		<line class="st1" x1="158.5" y1="216.9" x2="191.6" y2="215.9"/>
		<line class="st1" x1="153.5" y1="216" x2="186.6" y2="215"/>
	</g>
	<line class="st1" x1="127.6" y1="215.1" x2="160.8" y2="214.1"/>
	<line class="st1" x1="121.2" y1="213.9" x2="154.4" y2="212.9"/>
	<line class="st1" x1="116.2" y1="212.8" x2="149.4" y2="211.8"/>
	<g>
		<path class="st2" d="M103,129.5c-1.8,0-8.9,2.6-9.1,10c-0.2,7.4,3.5,58.3,3.5,58.3s0.1,9.1,7.8,10.8c9.3,2.1,26.2,5.8,26.2,5.8
			s6.3,0.9,10-0.9c3.7-1.7,31.4-14.3,33-15.2c3.2-1.7,4.4-2.8,4.9-9.5c0.4-5.8-0.2-14.3-0.2-14.3s-0.1-6.8-6.9-7.6
			c-2.4-0.3-12.6-2.6-20.2-4.4c-5.3-1.2-9.3-5.7-10-11.1l-1.6-12.5c-0.7-5.2-5.1-9.1-10.3-9.2C120.9,129.7,107.6,129.5,103,129.5z"
			/>
		<path class="st1" d="M105,135.7c0,0,2.8,29.7,3.5,32.3c0.6,2.6,3.1,9.8,10.6,11.5c7.6,1.7,15.4,3,15.4,3s4.5,0.6,7.6-0.2
			c3-0.9,32.9-9.3,32.9-9.3"/>
		<line class="st2" x1="137.6" y1="188" x2="137.6" y2="211.3"/>
	</g>
	<g>
		<path class="st2" d="M163.6,207.3l0.4,2.3c0,0,1.6,2.4,5.5,2.1l-2.4-3.2L163.6,207.3z"/>
		<path class="st2" d="M169.9,203.6c0,0,2.8,2.9,5.5,5.1c2.5,0.9,4.4,0.1,4.5,3.8c0,0-1.2,1.1-4.6,1.4c-2.9,0.2-4.8-0.1-8-2.6
			c-1.6-1.3-2-2.9-3.7-3.8c0,0-1.2-5.1-1.1-5.8s-0.5-7.3-0.5-7.3l4.2,0L169.9,203.6L169.9,203.6z"/>
		<path class="st2" d="M169.4,204.4c0,0,2.8,2.9,4.2,3.6"/>
	</g>
	<g>
		<g>
			<path class="st2" d="M154.2,211.2l0.5,2.6c0,0,0.4,1.6,6,1.8l-1.8-4.1L154.2,211.2z"/>
			<path class="st2" d="M161.3,206.4c0,0,2.6,2.9,5.4,5.2c4,1.6,5.2,0,5.3,3.9c0,0-2.8,1.3-5.3,1.4c-2.4,0.1-5.1,0.4-8.3-2.4
				c-1.7-1.5-2.5-2.3-4.3-3.3c0,0-1-6.3-0.8-7.1s-0.5-7.8-0.5-7.8h4.5L161.3,206.4L161.3,206.4z"/>
		</g>
		<path class="st1" d="M162.8,208.9c0,0,1.4,2,2.3,2.4"/>
	</g>
	<g>
		<path class="st2" d="M147.3,115.1c0,0,2.5,4.4,3.2,6.4c0.3,0.9,1.8,15,1.8,15s-3,2.5-6.4,1.9l0.2-17.1L147.3,115.1z"/>
		<path class="st1" d="M149.6,128.7c0,0-0.6-4.8,0.1-6.4"/>
	</g>
	<path class="st2" d="M157.2,146.2c0,0-1.9-1.2-4.3,0c-1,0.5-3.2,1.9-2.3,5.1c0,0,1.5,0.2,3.1-0.2
		C155.4,150.7,157.2,146.2,157.2,146.2z"/>
	<g>
		<path class="st2" d="M156.4,147.1c0,0-0.1,2.4-0.9,3.4s-2.3,1.5-2.3,1.5s-0.7-0.8-0.6-2.1C152.8,147.8,156.4,147.1,156.4,147.1z"
			/>
		<g>
			<path class="st2" d="M152.5,150.5c0,0,1.7,1.3,2.9,1.9c1.2,0.6,1.9,0.8,2.3,1c0.3,0.2,2.3,1,2.7,0.1s2.2,1,3,1.3
				c0.9,0.3,1.1,0.8,2.4-0.1c1.3-0.9,0.6-3.5,0.6-4c0-0.5-4-3-4.3-3s-2.8-0.3-2.8-0.3s-3,0.1-3.9-0.1
				C154.5,147.2,152.3,148.8,152.5,150.5z"/>
			<path class="st2" d="M157,151.1c0,0,2.8,0.6,3.5,2.5"/>
		</g>
		<path class="st2" d="M154.8,146.2l1.6,0.9c0,0-2.5,1-2.8,1.6c-0.9,1.4-0.4,3.3-0.4,3.3l-2.2-1.8c0,0,0-1.2,0.4-2.3
			C152.2,145.7,154.8,146.2,154.8,146.2z"/>
	</g>
	<path class="st2" d="M148.3,138.2c1.3-1.3,3.5-1.9,3.9-1.6c1,0.6,5.2,9.9,5.1,9.5c0,0-6.7-1.2-6.6,5.1c0,0-5.6-10.6-5.7-11.1"/>
	<path class="st2" d="M154.8,170.1c-6.5,1.3-7.9,1.1-11.4,1.4c-3.5,0.3-7.3-1.2-9.2-3.4s-4.1-8.2-4.1-8.2c4.8-6.8,16.6-4.1,20.4-4
		c3.8,0.1,15.4,4,17.2,5.4c1.6,1.3,3.9,2.6,4,4.3c0.1,1.7-1.5,36.1-1.5,37.7l-0.9,0.6l-8.6,1.9l-1.9-5.9l1.5-31.2L154.8,170.1z"/>
	<path class="st2" d="M160.3,168.9c0.3-0.9,0.3-2.2,0.3-2.2"/>
	<path class="st1" d="M170.3,167c0,0-2.2,28.9-2.2,32.6c0,0.8,0.4,3.5,0.4,3.5"/>
	<path class="st2" d="M132.5,175.1c-4.4,0.8-8.3-1.2-9.9-3.6c-2.9-4.5-1.8-10.8-1.8-10.8c4.8-6.8,18.1-2.3,21.9-2.2
		c3.8,0.1,15.4,4,17.2,5.4c1.6,1.3,3.9,2.6,4,4.3s-0.3,36.2-0.3,37.9l0.7,2.6l-2.8,0.8l-9.6,1.7c0,0-0.6-4.1-0.8-5.2s1-32.1,1-32.1
		S140.2,175.1,132.5,175.1z"/>
	<path class="st1" d="M162.5,170.9c0,0-1,32.6-0.4,35.3l0.6,2.2"/>
	<polygon class="st2" points="135.5,105.3 142.4,113.2 144.6,121.2 143.9,137.2 130.4,137.2 129.9,109 	"/>
	<path class="st2" d="M138.6,117.2c0,0,5.6,14.6,6.2,18.7s-0.1,6.7-0.1,6.7l-2.3,2.7l-3-1.7c0,0-2.1-24.3-2.3-26L138.6,117.2z"/>
	<path class="st2" d="M126.1,108.8l-9.2,6.4l-2.4,2.3c0,0,3.1,13.2,3.7,14.9c0.5,1.7,1.9,13.3,1.5,15.6s-0.7,16.1,1.4,23.8
		c0,0,1.1-5.2,7-6.9c5.8-1.7,11.9-1.6,14.3-2.5s2.5-4.9,2.5-4.9l-3-19.3l-15-27.1L126.1,108.8z"/>
	<path class="st2" d="M139.5,109.3c0,0,7.6,4.7,7.9,5.8c0,0,0.7,4.9,0.8,5.7c0.9,9.9-0.4,15.9-0.8,18.7c-1.1,6.7,2.6,21.5,2.6,21.5
		l-8.3-0.4c0,0-0.5-18.2,0.5-24.5c0.8-5.4,1.4-13.2,1.4-14.7C143.4,118.1,139.5,109.3,139.5,109.3z"/>
	<path class="st2" d="M138.4,106.6c0,0,0.1,7.7,0.3,9.5l-11.8-8c0,0,5.3-6.1,5.1-7.8L138.4,106.6z"/>
	<polygon class="st2" points="135.8,111.6 134.4,115.4 137.2,117.5 138.6,117.2 139.3,114 138.2,112.1 	"/>
	<path class="st2" d="M139,109.5c0,0-0.8,1.6-1.6,2.1l2.5,4.4l0-4.8L139,109.5z"/>
	<path class="st2" d="M138.6,109.2l3.2,1.8l1.7,0.8l-1,1.8l2.7,1.5c0,0-2.7,18.5-3.2,21.1c0,0-0.2-18.4-0.7-20
		C140.7,113.5,138.6,109.2,138.6,109.2z"/>
	<path class="st1" d="M132.8,132.4c0,0,1.4,7.2,1.3,9.5c-0.1,2.2-3.1,12.2-3.1,12.2"/>
	<polygon class="st2" points="143.7,126.7 146.9,125.4 146.7,126.8 143.3,128.8 	"/>
	<ellipse class="st2" cx="143" cy="138.7" rx="0.6" ry="0.8"/>
	<ellipse class="st2" cx="142.7" cy="150.8" rx="0.6" ry="0.8"/>
	<path class="st2" d="M128.8,105.2l-1.7,2.9c0,0,5.2,6.5,7.1,8.3c0,0,2.4-3.3,3.2-4.8C137.4,111.6,133.2,109.8,128.8,105.2z"/>
	<g>
		<path class="st2" d="M137.5,159.2l0.1,1.7c0.1,0.7,0.6,1.2,1.3,1.3l18.6,1.7c0.2,0,0.5,0,0.7-0.1l16.8-4.1
			c0.7-0.2,1.2-0.7,1.2-1.4l0.2-1.3L137.5,159.2z"/>
		<polygon class="st2" points="159.4,155.4 152.8,155.5 137.5,159.2 157.6,161.3 		"/>
		<path class="st2" d="M162.5,138.6l-4.9,22.7l18.7-4.3l4.8-21.9c0.3-1.2-0.8-2.4-2.1-2.1l-13,2.3
			C164.3,135.5,162.9,136.9,162.5,138.6z"/>
		<path class="st2" d="M165,159.5l0.7-2.2c0.2-0.7,0.8-1.2,1.4-1.3l5.9-1.2c0.5-0.1,0.8,0.3,0.7,0.8l-0.5,2L165,159.5z"/>
		<line class="st2" x1="164.2" y1="137.8" x2="159.4" y2="159.8"/>
	</g>
	<path class="st2" d="M157.2,196.6c0,0-1.8,6.6-4.2,8.6"/>
	<path class="st2" d="M127.6,106.5l-1.6,2.4l-2.2,2.7l2.7,1.2l-2.7,3c0,0,15.2,15.8,18,21.5c0,0-6.8-16.8-9.6-21.8
		C129.8,111.4,127.6,106.5,127.6,106.5z"/>
	<path class="st2" d="M148.9,136.4c0,0,1.9-0.2,3.3,0.2"/>
	<path class="st1" d="M146,148.8c0,0,0.9-7.4,1-7.8"/>
	<path class="st1" d="M124.8,119.7c0.5,0.8,14.2,15.8,14.7,16.7"/>
	<line class="st2" x1="143" y1="136.1" x2="144.4" y2="130"/>
	<g>
		<path class="st2" d="M131.5,103.9c-0.7-4.4,0.4-12,5.1-14.1c4.7-2.2,6.6-0.3,8.5,1.6c2.1,2.1,3.8,6.4,3.8,6.4s0.1,1-0.4,2.3
			c-0.6,1.2-1.5,2.3-1.5,2.3s0.1,4.4-0.6,4.6c-1,0.3-1.6-0.2-1.6-0.2c0.1,0.5-0.4,1-0.7,1c0.1,0.2,0.1,0.7-0.4,0.9
			c-0.6,0.2-0.9,0.5-1,0.8c-0.1,0.5-0.6,1.1-0.9,1.2c-1.3,0.4-3.3-0.4-5-2.4c-0.6-0.7-2-2-2.1-2.3c-0.5-0.7,0.2-2.5,0.2-2.5"/>
		<path class="st2" d="M148.6,92.3c-2.4-4.4-7.3-7-11.5-5.5c-3.9,1.3-5.3,3.5-5.9,6.3c-0.4,1.8,0,3-0.3,5.9
			c-0.2,1.6-1.6,6.2-1.6,6.2l0.6,0.6c0,0,4.1-3.5,4.9-4.1c0.8-0.5,3.1-1.9,3.1-1.9c0.3-0.3,0.1-0.9,1.3-1.4l0.1,3.3l0.3,0.6l2-4.1
			c0.6-0.2,1.7-0.7,1.7-0.7L144,95c0.3-0.2,1.4,0,1.4,0s2.3,2.5,3.5,2.7C150,97.9,152.6,92.9,148.6,92.3z"/>
		<path class="st2" d="M139.2,101.7c0,0,1.7-4.8,0.2-5.1c-1-0.2-1.2,0.4-1.5,1.2c-0.2,0.7,0.2,2.3,0.1,2.6c-0.3,0.5-0.5,0.7-0.4,1.1
			"/>
		<path class="st2" d="M144.1,107.7c-0.4-0.3-1.6-0.4-1.6-0.4c-0.3,0-0.6-0.3-0.5-0.4"/>
		<path class="st2" d="M142.6,108.3c0.1,0,0.6,0.3,0.9,0.3"/>
		<path class="st1" d="M144.6,98.6c0,0,2,1.2,2.2,1.8"/>
		<g>
			<line class="st1" x1="144.1" y1="101.4" x2="145.7" y2="101.9"/>
			<path class="st1" d="M144,102.1c0,0,1.1,0.2,1.2,0.3"/>
		</g>
		<path class="st1" d="M144.9,106.7c0,0-0.5-0.5-0.6-0.3"/>
		<path class="st2" d="M140.4,104.1c0,0-0.3-0.8-0.1-1.6"/>
		<path class="st2" d="M147,92.1c0,0,0.8,0,1.6,0.2"/>
		<path class="st2" d="M141.1,106.3c0,0-0.4,0.3-0.4,0.6"/>
	</g>
	<path class="st1" d="M121.8,165.8c0,0,4.2-5.1,9.5-4.5"/>
	<path class="st2" d="M129.4,166.1c0,0,9.1-2.6,13.5-2.1"/>
	<path class="st1" d="M139.9,174.2c0,0-6,0.9-7.4,0.9"/>
	<path class="st2" d="M153.1,184.1c0-0.2,2-10.4,3.3-12"/>
	<path class="st1" d="M167.8,165.1c0,0,0.4,1.4,1,1.4"/>
	<path class="st1" d="M160.6,168.2c0,0,0.5,1.8,1.2,1.8"/>
	<path class="st1" d="M136.4,148c0,0,4.1-7.5,4.2-8.3"/>
	<path class="st1" d="M132.8,106.7c0,0,2.3,3.5,3.4,4.2"/>
	<path class="st1" d="M116.2,117.2c0,0,7.2-5,8.3-5.2"/>
	<path class="st1" d="M122.2,156.6c0-0.4-0.5-2.6-1.1-6.2"/>
	<path class="st1" d="M125,155.9c0,0,7.6,0.9,8,1.4l-0.1,0.6c-0.2,1.3-1.3,2-2.6,1.8l-5.3-0.6c-0.8-0.1-1.4-0.7-1-1.5L125,155.9z"/>
	<path class="st1" d="M125.3,170.3c0,0,4.3-3.5,8.3-4"/>
	<path class="st2" d="M170.8,209.2c0,0,2.6-1.1,4.5-0.6"/>
	<path class="st1" d="M161.2,212.2c0,0,3.7-1,5.5-0.6"/>
	<g>
		<path class="st2" d="M141,149.3c0,0-0.5,8.7-3.9,10.3C137.1,159.7,135.2,151.1,141,149.3z"/>
		<g>
			<path class="st2" d="M142.6,150.4c0,0,0.6,1.4,0.1,3.5s-2.9,3.3-2.9,3.3s-1-1.3-0.4-3.4C139.9,151.8,142.6,150.4,142.6,150.4z"/>
			<g>
				<path class="st2" d="M152.7,151.4c0,0,4.6,0.7,5.2,1.5c0.2,0.3,0.2,1-0.4,1.3c0.6,0.2,1,0.8,0.9,1c-0.2,0.3-1.1,1-1.9,0.5
					c0.6,0.3,0.7,1.1-0.6,1.8c-0.5,0.3-1.9,0.2-2.7,0.2c-0.9,0.9-2.1,0.7-3.1,0.6c-2-0.2-2.5-0.4-2.5-0.4c-3.6,1-4.4-0.2-6.6-1.6
					s-3.7-1.2-3.7-1.2c-0.4-3.2,2.7-4.5,2.7-4.5s3.7,1.4,5.4,1.4c2.2-0.4,4.2-0.8,4.2-0.8L152.7,151.4z"/>
				<path class="st2" d="M147.7,156.4h3.2l2.6,0.9c0,0,0,1.1-0.8,1.2c-0.8,0.1-3.4-0.3-3.4-0.3s-3.2,1.1-4.2,0.2"/>
				<polyline class="st1" points="156.5,155.8 152.5,154.6 148.3,154.6 				"/>
				<polyline class="st1" points="149.5,152.8 152.8,152.8 157.5,154.2 				"/>
			</g>
			<path class="st2" d="M140.3,149.9l2.3,0.5c0,0-3.4,1.7-2.8,6.8c-0.2,0.1-3.4-0.6-3.4-0.6s0.1-2.8,1-4.4S140.3,149.9,140.3,149.9z
				"/>
		</g>
		<g>
			<path class="st2" d="M134.5,147.2c-2.5-0.7-6.7-2.3-10.5-2.8c-1.2-6.5-2.4-11.3-2.4-11.3s1.8-6.9,0.2-11.8
				c-1.4-4.4-4.6-6.8-5.6-5.9c0,0-3.7,2.4-2.7,5.4c0.4,1.4-1,10.4,1.1,15.9c1.1,8.2,1.1,14.6,2.9,15.2c1.9,0.7,19.7,7.8,19.7,7.8
				s-2.2-7.7,3.9-10.3C141,149.3,137.3,148,134.5,147.2z"/>
			<path class="st1" d="M124,144.4c0,0-2.5,0.8-5.7,5.3"/>
			<path class="st1" d="M124,144.4c-2.4,0.3-5.4,2.8-5.4,2.8c-1.1,0.1,0.3-1.9,1.8-2.6"/>
			<path class="st2" d="M115.2,120.1c0,0,4.8,4.7,5.3,8.7"/>
			<g>
				<ellipse class="st2" cx="134" cy="157.1" rx="0.5" ry="0.6"/>
				<ellipse class="st2" cx="132.2" cy="156.4" rx="0.5" ry="0.6"/>
			</g>
			<path class="st2" d="M121.4,140c0,0,0.2-5.2,0.2-6.9"/>
			<path class="st1" d="M116.3,127c0,0-2.2-5.8-3-6.2"/>
			<line class="st1" x1="116.5" y1="141.8" x2="114.5" y2="136.6"/>
		</g>
	</g>
	<path class="st2" d="M143.8,92.2c0,0,1.2,2.4,1.7,2.8"/>
	<line class="st2" x1="152.3" y1="172" x2="152.2" y2="173.8"/>
</g>
</svg>
