<svg xmlns="http://www.w3.org/2000/svg" xmlns:xlink="http://www.w3.org/1999/xlink" version="1.1" id="レイヤー_1" x="0px" y="0px" viewBox="0 0 300 300" style="enable-background:new 0 0 300 300;" xml:space="preserve"> <style type="text/css"> .st0{fill:#FFFFFF;} .st1{fill:none;stroke:#0081FF;stroke-linecap:round;stroke-linejoin:round;stroke-miterlimit:10;} </style> <rect class="st0" width="300" height="300"></rect> <g> <g> <path class="st1" d="M143.9,92.2l0.2-2l3.1,1.3l1-0.8l0.7-2.1c0,0,0.3-1,0.6-1.2c0.7,0.5,1.9,0,1.9,0l-0.4-3.5l0.3-1.6l1.3-0.8 c0,0,0.2-1.4,0.2-1.4c0,0,0.1-2.9,0.1-2.9l0.9-1.7c0,0-0.4-2.6-0.9-4c-0.5-1.3-0.9-1.5-4.6-3.7c-3.7-2.1-2.9-0.9-5.1-0.6 c-2.1,0.3-4.8,0.5-6.1,2.8s-2.5,4.2-2.8,7.1s0.5,7,0.5,7s0.3,2.8-0.7,4.7c0,0,4.5,4.6,6.2,5.4C140.3,94.2,143.9,92.4,143.9,92.2z"></path> <polyline class="st1" points="166.8,103.3 164.3,103.3 160.3,103.3 156.1,103.3 "></polyline> <path class="st1" d="M145.8,92.9c0,0,0.8-0.3,1.8,0.1c1,0.4,2.5,0,4.4-0.7c1.8-0.7,1.9,0,2.6,0c0.7,0,1.5,1,2,0.9 c0.5-0.2,2.4,0,2.4,0h2.9l4.1,0.8l4.5,0.7l5.4,0.9c0,0,12.2-3.1,13.7-3.3c1.7-0.2,6.1-0.6,6.1-0.6s1.4,8,1.4,10.5 c0,0-3.8-0.5-6.8,0.3s-5.5,1-5.5,1l-7.7,1.3l-6.5-0.2l-6.3-1.3"></path> <path class="st1" d="M157.2,101l-3,6.5c0,0-2.9,11.6-2.9,13.1s0,2.8,0,2.8"></path> <path class="st1" d="M122.3,109.8c0,0,2.3,8.2,2.4,10.8c0.1,2.5-1.8,11.3-1.8,11.3l-0.1,4.2l-2,8.7c0,0,6.2,4.1,9.3,4 s8.3,0.3,8.3,0.3s2.6-18.4,2.6-18.9"></path> <path class="st1" d="M131.1,90.7c0,0-2.6,0.1-4.2,0.4c-1.6,0.3-2.5,0.6-3.9,1.4s-2.8,3.9-2.8,3.9s-3.8,5.2-5.8,6.9 s-5.5,5.4-5.5,5.4c-0.7,1.7-5,7.5-5,8.2c0,0.7,0,2,0,2s1.1,19.8,1,20.7c0,0,5.3,1.6,7.8,0c0,0,1.7-14.5,1.7-16.1 c0-1.6-0.5-5.2-0.5-5.2l4.2-5.1c0.6-0.1,8.9-8.7,8.9-8.7"></path> <path class="st1" d="M107,144.6c-0.1,0.7-1.1,2.9-1.5,3.3c-0.4,0.4-0.7,5.9-0.5,7c0.1,0.6,0.2,3.6,1.4,4.1c0.5,1,0.9,1.1,1.1,1.4 c0.4,0.5,1.4-0.1,1.4-0.1s0.4,0.8,1.1,0.8s0.5-0.8,0.5-0.8s0.5,0.4,1,0.3c0.5-0.1,0.5-1.5,0.5-1.5s-0.7-2.8-0.7-3.2 c0-0.4-0.1-5-0.1-5l1.4,3.2c0,0,0.5,2.4,1,2.6s0.8-0.3,0.8-0.3v-2.9l-1-3.6c0,0-1.9-5.1-2-5.4"></path> <path class="st1" d="M108.9,108.7"></path> <path class="st1" d="M140.8,126.8c0,0-3-21.3-3.8-23c-0.8-1.7-3.9-12.4-3.9-12.4s-0.3-1.7,0.2-2.5l-1.8,1.3l-2.1,2.7l2.8,1.8 l-2.3,2.6c0,0,5.2,11.7,6.2,15C137.1,114.9,141.3,124.9,140.8,126.8"></path> <path class="st1" d="M144.7,91.8c0,0,2,2.2,2.1,2.4s1.2,2.2,1.2,2.2l-1.4,0.7l2.8,2.2c0,0-6.7,21.9-6.7,23.1"></path> <path class="st1" d="M150.4,121.3c0.1,1.8,2.3,9.1,2.3,10.1s1.9,14.6,1.9,14.6s-0.7,0.9-2.2,1.6c-1.5,0.7-10.3,0.7-10.3,0.7 s-0.7-16.6-0.9-18.6s2.4-17.9,2.4-18.7c0.1-0.8,0.6-16.1,0.6-16.1l-0.3-2.5"></path> <path class="st1" d="M135.4,96.4c0,0,4.3-1.8,4.7-1.8"></path> <line class="st1" x1="140.8" y1="94.7" x2="143.4" y2="96.9"></line> <path class="st1" d="M138.4,95.8c0,0,1.2,2.2,1.2,2.8h1.6c0,0,0.4-2.1,1-2.2"></path> <path class="st1" d="M139.5,98.6c0,0-1.4,9.8-1,11.2"></path> <path class="st1" d="M141.5,99c0,0,1.8,6.4,1.9,7.9"></path> <path class="st1" d="M200,92.8c0,0,2.2-0.9,2.6-0.9c0.4,0.1,2.2-1.8,2.2-1.8s2.1-2.2,3-2.6c0.9-0.4,2.5,0,2.5,0l2.3-0.2l2.3-0.7 c0,0,0.6,0.3,0.7,1c0.1,0.6-0.6,1.1-0.6,1.1l-2.9,1.1c0,0-0.5,2.9-1.5,3.1"></path> <path class="st1" d="M216.6,87.9c0,0,3.3-0.6,3.8-0.7c0.4-0.1,1.8-0.3,2.3,0.4s-0.7,0.8-0.7,0.8s1.3,1.1,0.8,1.4s-1.4,0.5-1.4,0.5 s1.3,0.6,1,1.2c-0.3,0.6-1.6,1.2-1.6,1.2s0.7,1.3-0.5,1.6c-1.2,0.4-3.7,1.1-3.7,1.1s-3.3,0.6-4.3,0.6c-0.9,0-5.6,0.8-5.6,0.8 s-6.7,0.4-6.7,0.5"></path> <path class="st1" d="M196.3,92l1.9-0.8c0,0,1.8,2.9,1.9,4.2c0.1,1.3-0.5,3.2-0.5,3.2l-2.2,0.4"></path> <path class="st1" d="M105.9,140.8c0,0,0,2.6,0,2.8c0,0,2.1,0.2,3.1,0.3c0.9,0.1,2.9-0.8,2.9-0.8v-2.4"></path> <line class="st1" x1="126.4" y1="129.4" x2="124.8" y2="120.5"></line> <path class="st1" d="M124.9,148.4c0,0,0.8,3.7,1.2,5.6c0.4,1.9,4.2,11.1,4.8,12.3c0.6,1.2,6.1,12.6,6,13.2 c-0.1,0.6,1.1,3.5,1.1,3.5s-4,13.7-4.2,18.9c-0.2,5.3,0.5,20.3,0.5,20.3s5.1,0.8,7.2,0c2.1-0.8,3.8-1.5,3.8-1.5s-1.1-2.8-1.2-3.6 c-0.1-0.8,0.5-2.3,0.6-3c0.1-0.7-1-3.3-0.7-4.3c0.2-1.1,0.7-8.4,0.7-8.4s3.7-11.6,3.8-13.9c0.1-2.3-0.9-8.1-0.9-8.1 s-1.8-8.3-1.4-8.6s-2.6-16.9-2.6-16.9"></path> <path class="st1" d="M149.9,149.6c0,0,0.4,7.9,0.1,9.2s-1.6,22.9-1.6,22.9"></path> <path class="st1" d="M136.7,183.1c0,0-11.5,0-12,0c-0.5,0-5.1,0-5.1,0l-11.4,2.2c0,0,2.6,11.7,3.6,12.6c0,0,5.1-3.7,6.4-4.1 s3.3-0.4,3.3-0.4l12.9-0.4"></path> <path class="st1" d="M108.1,187.5l-4.9,2.4l-0.4,0.6l-1.1,0.9l1,4.4h1.3c0,0-0.8,3.1-0.4,5.5s1.6,5.3,2,5.8s2.2,1.4,3,1.3 c0.8-0.1,1.7-0.5,1.9-0.8c0.3-0.3,0.5-1.6,0.5-1.6s-1.9-2.2-1.9-2.8c0-0.6-0.2-2.6-0.2-2.6s-0.4-4.8-0.1-5.3s0.6-1.8,0.6-1.8"></path> <path class="st1" d="M135.2,223.1v1.6c0,0-0.2,2.8,0,3.2s0.4,2.5,0.4,2.5l2.3,1.1l0.9-1.1c0,0,2.5,2.4,3.9,2.5 c1.4,0.2,6.5,0.4,7.3,0.5c0.8,0.1,2.9-0.4,3.7-1.1c0.8-0.7,0.9-1.8,0.7-2.1c-0.2-0.3-3.6-2.8-3.6-2.8l-4.8-2.2 c0,0-3.4-3.7-3.2-3.8"></path> <path class="st1" d="M142.8,76.9c0,0,0-1.2-0.7-0.6s-1.3,2.2-1.2,3.1c0.1,0.9,0.3,2.6,0.6,3c0.3,0.4,0.7,0.5,0.7,0.5"></path> <path class="st1" d="M141.5,84.7l0.4,3.2c0,0,1.3,1.9,2.2,2.3"></path> <path class="st1" d="M135.4,85.8c0,0,2.4,0,3,0l1.2-2.5l0.7-1.8"></path> <path class="st1" d="M152.4,76.8c0,0-1.5-0.2-2.2-0.6c-0.7-0.4-1.5-1.1-1.5-1.1s-0.9,1.4-1.4,1.8c-0.4,0.3-1.3,0.7-1.3,0.7h-1.5 c0,0-1.3,5.1-1.3,6.1c0,0-0.1-2.8,0-3.7c0.1-1-0.6-3-0.6-3"></path> <path class="st1" d="M147.6,79.3c0,0,0.1-0.5,0.6-0.4c0.5,0.1,2.4,3.1,3,3"></path> <path class="st1" d="M147.9,82c0,0,0.9,0.5,1.2,0.5"></path> <path class="st1" d="M147.1,87.3c0,0,0.8,0.3,1.8,1.3"></path> <path class="st1" d="M147.3,88.9c0,0,1.1,0.2,1.2,0.5"></path> <path class="st1" d="M146.1,85.8c0,0-1,0.1-1,0.9"></path> <polyline class="st1" points="214.2,90.5 216.5,89.9 222,88.3 "></polyline> <polyline class="st1" points="213.6,92.1 216.4,91.8 221.4,90.1 "></polyline> <polyline class="st1" points="213.6,93.8 216.7,93.3 220.8,92.5 "></polyline> <polyline class="st1" points="109.4,151.9 109.4,154.9 110.5,160.3 "></polyline> <path class="st1" d="M107.1,152.2l0.6,3.9c0,0,0.8,3.8,1.2,4.2"></path> <line class="st1" x1="105.9" y1="154.4" x2="106.3" y2="159"></line> </g> <line class="st1" x1="172.8" y1="96.5" x2="175.9" y2="95.6"></line> <path class="st1" d="M205.9,84.3c0,0-4.5-0.2-11.7,0"></path> <path class="st1" d="M200.1,82.1c0,0-13.3-0.5-15.8-0.5"></path> </g> </svg>